<?xml version="1.0" encoding="utf-8"?>
<!-- Generator: Adobe Illustrator 23.1.0, SVG Export Plug-In . SVG Version: 6.00 Build 0)  -->
<svg version="1.1" id="Capa_1" xmlns="http://www.w3.org/2000/svg" xmlns:xlink="http://www.w3.org/1999/xlink" x="0px" y="0px"
	 viewBox="0 0 600 350" style="enable-background:new 0 0 600 350;" xml:space="preserve">
<style type="text/css">
	.st0{fill:#FFFFFF;}
</style>
<g transform="translate(0.000000,350.000000) scale(0.100000,-0.100000)">
	<path class="st0" d="M3126.5,772.6c61,30,1572,1550,1602,1611c27,58,29,165,2,223c-23,52-74,103-126,126c-57,26-162,25-220-2
		c-34-16-210-187-715-697l-670-675l-670,675c-505,510-681,681-715,697c-58,27-163,28-220,2c-52-23-103-74-126-126
		c-25-54-25-166,0-221c26-57,1545-1584,1605-1613C2933.5,742.6,3067.5,742.6,3126.5,772.6z"/>
</g>
</svg>
